<svg version="1" xmlns="http://www.w3.org/2000/svg" width="682.667" height="682.667" viewBox="0 0 512.000000 512.000000"><path d="M43 1.9C22.2 7.4 6.4 23.6 1.5 44.4c-2.1 8.8-2.1 413.7 0 423.3 1.8 8.3 7.8 19.4 14.1 26.2 6.1 6.7 17.4 13.4 27 16.1 6.7 1.9 11.1 2 212.9 2 227.5 0 211.8.4 225.4-6.5 13-6.5 24.5-20.1 28.8-34.2 1.7-5.5 1.8-16.5 1.8-214.3 0-114.7-.3-209.9-.7-211.5-1.2-5.4-2.8-9.9-4.8-13.5-1-1.9-2.4-4.6-3-5.9-1.4-3.1-13.7-15.3-17.5-17.4-7.3-3.9-12.4-6-18-7.2C462.6.4 422.8.2 255.5.2 64 .2 49 .3 43 1.9z"/></svg>